<svg width="512" height="512" viewBox="0 0 512 512" fill="none" xmlns="http://www.w3.org/2000/svg">
  <path d="M256 324C293.555 324 324 293.555 324 256C324 218.445 293.555 188 256 188C218.445 188 188 218.445 188 256C188 293.555 218.445 324 256 324Z" fill="#3B82F6"/>
  <path fill-rule="evenodd" clip-rule="evenodd" d="M256 464C268.15 464 278 454.15 278 442V418.914C304.814 415.424 330.124 405.513 352.484 390.174L368.528 406.218C377.121 414.811 391.046 414.811 399.639 406.218L406.218 399.639C414.811 391.046 414.811 377.121 406.218 368.528L390.174 352.484C405.513 330.124 415.424 304.814 418.914 278H442C454.15 278 464 268.15 464 256C464 243.85 454.15 234 442 234H418.914C415.424 207.186 405.513 181.876 390.174 159.516L406.218 143.472C414.811 134.879 414.811 120.954 406.218 112.361L399.639 105.782C391.046 97.1887 377.121 97.1887 368.528 105.782L352.484 121.826C330.124 106.487 304.814 96.5761 278 93.086V70C278 57.8502 268.15 48 256 48C243.85 48 234 57.8502 234 70V93.086C207.186 96.5761 181.876 106.487 159.516 121.826L143.472 105.782C134.879 97.1887 120.954 97.1887 112.361 105.782L105.782 112.361C97.1887 120.954 97.1887 134.879 105.782 143.472L121.826 159.516C106.487 181.876 96.5761 207.186 93.086 234H70C57.8502 234 48 243.85 48 256C48 268.15 57.8502 278 70 278H93.086C96.5761 304.814 106.487 330.124 121.826 352.484L105.782 368.528C97.1887 377.121 97.1887 391.046 105.782 399.639L112.361 406.218C120.954 414.811 134.879 414.811 143.472 406.218L159.516 390.174C181.876 405.513 207.186 415.424 234 418.914V442C234 454.15 243.85 464 256 464ZM256 348C306.81 348 348 306.81 348 256C348 205.19 306.81 164 256 164C205.19 164 164 205.19 164 256C164 306.81 205.19 348 256 348Z" fill="#3B82F6"/>
</svg>
